<svg width="256" height="256" viewBox="0 0 256 256" fill="none" xmlns="http://www.w3.org/2000/svg">
<rect width="256" height="256" fill="white"/>
<path d="M127.972 180C121.139 180 114.447 179.045 107.895 177.136C101.415 175.292 96.378 173.317 92.7854 171.21L89.6155 177.926H81.3736L80 141.086H87.7135C88.7702 144.049 90.5312 147.407 92.9967 151.16C95.4622 154.848 98.28 158.173 101.45 161.136C104.761 164.099 108.529 166.601 112.756 168.642C117.053 170.683 121.632 171.704 126.492 171.704C132.903 171.704 137.658 170.551 140.757 168.247C143.927 165.877 145.512 162.255 145.512 157.383C145.512 154.749 144.808 152.576 143.399 150.864C141.99 149.152 140.053 147.671 137.587 146.42C134.84 145.103 131.811 143.984 128.5 143.062C125.26 142.14 121.244 141.021 116.454 139.704C111.664 138.387 107.543 137.07 104.092 135.753C100.71 134.37 97.1881 132.23 93.5251 129.333C90.3551 126.765 87.8192 123.671 85.9172 120.049C84.0153 116.428 83.0643 112.115 83.0643 107.111C83.0643 97.8272 87.2204 90.321 95.5327 84.5926C103.915 78.8642 114.869 76 128.394 76C134.805 76 140.687 76.6255 146.04 77.8765C151.464 79.0617 156.008 80.3786 159.671 81.8272L161.89 76H169.92L171.611 109.679H164.109C161.643 102.831 157.417 96.9383 151.429 92C145.442 86.9959 138.996 84.4938 132.093 84.4938C126.668 84.4938 122.407 85.5473 119.307 87.6543C116.208 89.7613 114.658 92.6914 114.658 96.4444C114.658 101.449 116.912 105.07 121.42 107.309C125.999 109.547 132.374 111.654 140.546 113.63C153.155 116.658 162.383 120.807 168.23 126.074C174.077 131.276 177 137.926 177 146.025C177 156.823 172.456 165.185 163.369 171.111C154.353 177.037 142.553 180 127.972 180Z" fill="black"/>
</svg>
