<svg width="32" height="32" viewBox="0 0 32 32" fill="none" xmlns="http://www.w3.org/2000/svg">
<rect width="32" height="32" fill="white"/>
<path d="M15.4292 23C14.5134 23 13.6166 22.8715 12.7386 22.6144C11.87 22.3663 11.195 22.1003 10.7135 21.8167L10.2887 22.7208H9.1841L9 17.7616H10.0338C10.1754 18.1605 10.4114 18.6125 10.7418 19.1178C11.0723 19.6141 11.4499 20.0617 11.8747 20.4606C12.3184 20.8594 12.8235 21.1963 13.39 21.471C13.9659 21.7458 14.5795 21.8832 15.2309 21.8832C16.0901 21.8832 16.7273 21.7281 17.1427 21.4179C17.5675 21.0988 17.78 20.6113 17.78 19.9554C17.78 19.6008 17.6855 19.3083 17.4967 19.0779C17.3079 18.8474 17.0483 18.648 16.7179 18.4796C16.3497 18.3023 15.9437 18.1516 15.5 18.0275C15.0657 17.9035 14.5276 17.7528 13.8856 17.5755C13.2436 17.3982 12.6914 17.221 12.2288 17.0437C11.7756 16.8576 11.3036 16.5695 10.8126 16.1795C10.3878 15.8338 10.0479 15.4172 9.79303 14.9297C9.53813 14.4422 9.41068 13.8617 9.41068 13.188C9.41068 11.9383 9.96768 10.9278 11.0817 10.1567C12.2052 9.38557 13.6732 9 15.4858 9C16.345 9 17.1333 9.0842 17.8508 9.25261C18.5777 9.41216 19.1866 9.58943 19.6776 9.78443L19.9749 9H21.0512L21.2778 13.5337H20.2723C19.9419 12.6119 19.3755 11.8186 18.573 11.1538C17.7705 10.4802 16.9067 10.1434 15.9815 10.1434C15.2545 10.1434 14.6834 10.2852 14.268 10.5689C13.8526 10.8525 13.6449 11.2469 13.6449 11.7521C13.6449 12.4258 13.947 12.9133 14.5512 13.2146C15.1649 13.516 16.0192 13.7996 17.1144 14.0655C18.8043 14.4733 20.041 15.0317 20.8246 15.7407C21.6082 16.441 22 17.3362 22 18.4264C22 19.88 21.3911 21.0057 20.1732 21.8034C18.9648 22.6011 17.3834 23 15.4292 23Z" fill="black"/>
</svg>
