<svg width="677" height="259" viewBox="0 0 677 259" fill="none" xmlns="http://www.w3.org/2000/svg">
<path d="M95.8008 78.4258C98.7305 81.681 100.879 85.2617 102.246 89.168C103.678 93.0091 104.395 97.5013 104.395 102.645C104.395 114.884 99.8698 124.975 90.8203 132.918C81.7708 140.861 70.5404 144.832 57.1289 144.832C50.944 144.832 44.7591 143.888 38.5742 142C32.3893 140.047 27.0508 137.703 22.5586 134.969L18.3594 142.098H10.5469L9.17969 94.6367H17.0898C18.7174 100.496 20.6055 105.802 22.7539 110.555C24.9674 115.242 27.8646 119.637 31.4453 123.738C34.8307 127.579 38.7695 130.639 43.2617 132.918C47.819 135.197 53.0924 136.336 59.082 136.336C63.5742 136.336 67.4805 135.75 70.8008 134.578C74.1862 133.406 76.9206 131.746 79.0039 129.598C81.0872 127.449 82.6172 124.943 83.5938 122.078C84.6354 119.148 85.1562 115.796 85.1562 112.02C85.1562 106.486 83.5938 101.342 80.4688 96.5898C77.3438 91.7721 72.6888 88.1263 66.5039 85.6523C62.2721 83.9596 57.4219 82.1042 51.9531 80.0859C46.4844 78.0026 41.7643 76.0495 37.793 74.2266C29.9805 70.7109 23.8932 66.1211 19.5312 60.457C15.2344 54.7279 13.0859 47.2734 13.0859 38.0938C13.0859 32.8203 14.1602 27.9049 16.3086 23.3477C18.457 18.7904 21.5169 14.7214 25.4883 11.1406C29.2643 7.75521 33.724 5.11849 38.8672 3.23047C44.0104 1.27734 49.3815 0.300781 54.9805 0.300781C61.3607 0.300781 67.0573 1.27734 72.0703 3.23047C77.1484 5.18359 81.7708 7.46224 85.9375 10.0664L89.9414 3.42578H97.7539L98.5352 49.4219H90.625C89.1927 44.1484 87.5651 39.1029 85.7422 34.2852C83.9844 29.4674 81.6732 25.1055 78.8086 21.1992C76.0091 17.4232 72.5911 14.4284 68.5547 12.2148C64.5182 9.9362 59.5703 8.79688 53.7109 8.79688C47.526 8.79688 42.2526 10.7826 37.8906 14.7539C33.5286 18.7253 31.3477 23.5755 31.3477 29.3047C31.3477 35.2943 32.7474 40.2747 35.5469 44.2461C38.3464 48.1523 42.4154 51.375 47.7539 53.9141C52.5065 56.1927 57.1615 58.1784 61.7188 59.8711C66.3411 61.4987 70.8008 63.2565 75.0977 65.1445C79.0039 66.8372 82.7474 68.7578 86.3281 70.9062C89.974 73.0547 93.1315 75.5612 95.8008 78.4258Z" fill="white"/>
<path d="M152.832 130.77C152.832 134.415 151.497 137.54 148.828 140.145C146.224 142.684 143.099 143.953 139.453 143.953C135.807 143.953 132.65 142.684 129.98 140.145C127.376 137.54 126.074 134.415 126.074 130.77C126.074 127.124 127.376 123.999 129.98 121.395C132.65 118.725 135.807 117.391 139.453 117.391C143.099 117.391 146.224 118.725 148.828 121.395C151.497 123.999 152.832 127.124 152.832 130.77Z" fill="white"/>
<path d="M288.379 41.0234H281.641C281.055 38.6797 279.98 35.9128 278.418 32.7227C276.921 29.4674 275.228 26.4076 273.34 23.543C271.387 20.5482 269.238 17.944 266.895 15.7305C264.616 13.4518 262.402 12.1497 260.254 11.8242C258.236 11.5638 255.697 11.3685 252.637 11.2383C249.577 11.1081 246.745 11.043 244.141 11.043H238.477V121.883C238.477 124.031 238.932 126.017 239.844 127.84C240.755 129.598 242.35 130.965 244.629 131.941C245.801 132.397 248.242 133.016 251.953 133.797C255.729 134.578 258.659 135.001 260.742 135.066V142H195.312V135.066C197.135 134.936 199.902 134.676 203.613 134.285C207.389 133.895 209.993 133.406 211.426 132.82C213.574 131.974 215.137 130.77 216.113 129.207C217.155 127.579 217.676 125.431 217.676 122.762V11.043H212.012C209.993 11.043 207.487 11.1081 204.492 11.2383C201.497 11.3034 198.633 11.4987 195.898 11.8242C193.75 12.0846 191.504 13.3867 189.16 15.7305C186.882 18.0091 184.766 20.6133 182.812 23.543C180.859 26.4727 179.134 29.5977 177.637 32.918C176.139 36.1732 175.098 38.875 174.512 41.0234H167.676V3.42578H288.379V41.0234Z" fill="white"/>
<path d="M330.566 130.77C330.566 134.415 329.232 137.54 326.562 140.145C323.958 142.684 320.833 143.953 317.188 143.953C313.542 143.953 310.384 142.684 307.715 140.145C305.111 137.54 303.809 134.415 303.809 130.77C303.809 127.124 305.111 123.999 307.715 121.395C310.384 118.725 313.542 117.391 317.188 117.391C320.833 117.391 323.958 118.725 326.562 121.395C329.232 123.999 330.566 127.124 330.566 130.77Z" fill="white"/>
<path d="M482.715 142H425V135.066C430.078 134.741 434.277 134.09 437.598 133.113C440.983 132.137 442.676 130.932 442.676 129.5C442.676 128.914 442.611 128.198 442.48 127.352C442.35 126.505 442.155 125.757 441.895 125.105L430.371 94.0508H381.836C380.013 98.6081 378.516 102.579 377.344 105.965C376.237 109.35 375.228 112.475 374.316 115.34C373.47 118.139 372.884 120.418 372.559 122.176C372.233 123.934 372.07 125.366 372.07 126.473C372.07 129.077 374.121 131.095 378.223 132.527C382.324 133.96 386.947 134.806 392.09 135.066V142H339.941V135.066C341.634 134.936 343.75 134.578 346.289 133.992C348.828 133.341 350.911 132.495 352.539 131.453C355.143 129.695 357.161 127.872 358.594 125.984C360.026 124.031 361.426 121.362 362.793 117.977C369.759 100.594 377.441 81.0625 385.84 59.3828C394.238 37.7031 401.725 18.3997 408.301 1.47266H416.113L462.305 121.004C463.281 123.543 464.388 125.594 465.625 127.156C466.862 128.719 468.587 130.249 470.801 131.746C472.298 132.658 474.251 133.439 476.66 134.09C479.069 134.676 481.087 135.001 482.715 135.066V142ZM426.855 85.3594L405.859 31.6484L385.254 85.3594H426.855Z" fill="white"/>
<path d="M518.652 130.77C518.652 134.415 517.318 137.54 514.648 140.145C512.044 142.684 508.919 143.953 505.273 143.953C501.628 143.953 498.47 142.684 495.801 140.145C493.197 137.54 491.895 134.415 491.895 130.77C491.895 127.124 493.197 123.999 495.801 121.395C498.47 118.725 501.628 117.391 505.273 117.391C508.919 117.391 512.044 118.725 514.648 121.395C517.318 123.999 518.652 127.124 518.652 130.77Z" fill="white"/>
<path d="M676.562 142H639.258C630.99 129.044 623.503 117.846 616.797 108.406C610.156 98.9661 602.93 89.2331 595.117 79.207H580.957V123.152C580.957 125.431 581.315 127.449 582.031 129.207C582.747 130.9 584.277 132.202 586.621 133.113C587.793 133.569 589.844 133.992 592.773 134.383C595.703 134.773 598.177 135.001 600.195 135.066V142H541.602V135.066C543.164 134.936 545.41 134.708 548.34 134.383C551.335 134.057 553.418 133.634 554.59 133.113C556.543 132.267 557.943 131.03 558.789 129.402C559.701 127.775 560.156 125.691 560.156 123.152V22.957C560.156 20.6784 559.831 18.6602 559.18 16.9023C558.529 15.1445 556.999 13.8099 554.59 12.8984C552.962 12.3125 550.846 11.7917 548.242 11.3359C545.638 10.8151 543.424 10.4896 541.602 10.3594V3.42578H605.566C611.426 3.42578 616.927 4.04427 622.07 5.28125C627.214 6.45312 631.868 8.3737 636.035 11.043C640.072 13.6471 643.294 17.0651 645.703 21.2969C648.112 25.4635 649.316 30.5091 649.316 36.4336C649.316 41.7721 648.503 46.4922 646.875 50.5938C645.247 54.6953 642.839 58.2435 639.648 61.2383C636.719 64.0378 633.203 66.4792 629.102 68.5625C625 70.5807 620.475 72.306 615.527 73.7383C622.363 82.7878 628.027 90.4049 632.52 96.5898C637.077 102.775 642.643 110.294 649.219 119.148C652.083 123.055 654.655 125.952 656.934 127.84C659.277 129.663 661.589 131.16 663.867 132.332C665.56 133.178 667.676 133.829 670.215 134.285C672.754 134.741 674.87 135.001 676.562 135.066V142ZM625.195 38.6797C625.195 30.2812 622.786 23.6406 617.969 18.7578C613.151 13.8099 606.348 11.3359 597.559 11.3359H580.957V70.8086H593.75C602.734 70.8086 610.221 67.944 616.211 62.2148C622.201 56.4206 625.195 48.5755 625.195 38.6797Z" fill="white"/>
<path d="M53.8302 204.851C53.8302 208.484 53.1078 211.708 51.6632 214.523C50.2513 217.304 48.2813 219.612 45.7532 221.445C43.2578 223.277 40.5163 224.619 37.5284 225.47C34.5406 226.321 31.3722 226.746 28.0232 226.746H20.1925V247.856C20.1925 249.002 20.373 250.016 20.7342 250.9C21.1282 251.751 21.9162 252.405 23.0982 252.863C23.6892 253.093 24.7235 253.305 26.201 253.502C27.7113 253.698 29.0903 253.813 30.3379 253.845V257.331H0.344749V253.845C1.13275 253.78 2.2655 253.665 3.74299 253.502C5.25332 253.338 6.30399 253.125 6.89499 252.863C7.87999 252.438 8.5859 251.816 9.01273 250.998C9.4724 250.18 9.70223 249.132 9.70223 247.856V197.586C9.70223 196.44 9.53807 195.409 9.20973 194.493C8.8814 193.577 8.10982 192.889 6.89499 192.431C5.64732 192.006 4.39966 191.711 3.15199 191.547C1.93716 191.351 0.886498 191.22 0 191.155V187.669H31.9139C38.4149 187.669 43.6847 189.24 47.7232 192.382C51.7945 195.491 53.8302 199.648 53.8302 204.851ZM38.8582 216.732C39.9745 215.161 40.7133 213.541 41.0744 211.872C41.4356 210.17 41.6162 208.648 41.6162 207.306C41.6162 205.44 41.3863 203.542 40.9267 201.611C40.4998 199.68 39.7447 197.995 38.6612 196.555C37.512 195.017 36.0017 193.822 34.1302 192.971C32.2587 192.12 29.9275 191.695 27.1367 191.695H20.1925V222.475H25.216C28.7619 222.475 31.6349 221.935 33.8347 220.855C36.0673 219.743 37.7418 218.368 38.8582 216.732Z" fill="white"/>
<path d="M129.971 257.331H111.157C106.987 250.818 103.211 245.189 99.8296 240.443C96.4806 235.698 92.8361 230.805 88.8961 225.765H81.7549V247.856C81.7549 249.002 81.9354 250.016 82.2966 250.9C82.6578 251.751 83.4293 252.405 84.6113 252.863C85.2023 253.093 86.2366 253.305 87.7141 253.502C89.1916 253.698 90.4393 253.813 91.4571 253.845V257.331H61.9071V253.845C62.6951 253.78 63.8279 253.665 65.3054 253.502C66.8157 253.338 67.8664 253.125 68.4574 252.863C69.4424 252.438 70.1483 251.816 70.5751 250.998C71.0348 250.18 71.2646 249.132 71.2646 247.856V197.488C71.2646 196.342 71.1005 195.328 70.7721 194.444C70.4438 193.56 69.6722 192.889 68.4574 192.431C67.6365 192.137 66.5695 191.875 65.2561 191.646C63.9428 191.384 62.8265 191.22 61.9071 191.155V187.669H94.1658C97.1208 187.669 99.8952 187.98 102.489 188.602C105.083 189.191 107.43 190.156 109.532 191.498C111.567 192.807 113.193 194.526 114.408 196.653C115.622 198.748 116.23 201.284 116.23 204.262C116.23 206.946 115.819 209.319 114.999 211.381C114.178 213.443 112.963 215.226 111.354 216.732C109.877 218.139 108.104 219.366 106.035 220.414C103.967 221.428 101.685 222.295 99.1893 223.015C102.637 227.565 105.493 231.394 107.759 234.503C110.057 237.612 112.864 241.392 116.181 245.843C117.625 247.807 118.922 249.263 120.071 250.213C121.253 251.129 122.419 251.882 123.568 252.471C124.422 252.896 125.489 253.223 126.769 253.453C128.05 253.682 129.117 253.813 129.971 253.845V257.331ZM104.065 205.391C104.065 201.169 102.85 197.831 100.421 195.377C97.9909 192.889 94.5598 191.646 90.1273 191.646H81.7549V221.543H88.2066C92.7376 221.543 96.5134 220.103 99.5341 217.223C102.555 214.31 104.065 210.366 104.065 205.391Z" fill="white"/>
<path d="M189.169 195.917C192.255 199.124 194.668 203.002 196.409 207.551C198.149 212.068 199.019 217.075 199.019 222.574C199.019 228.105 198.132 233.128 196.359 237.645C194.586 242.161 192.124 246.007 188.972 249.182C185.918 252.323 182.372 254.745 178.334 256.447C174.295 258.149 169.994 259 165.43 259C160.571 259 156.073 258.1 151.936 256.3C147.832 254.467 144.302 251.931 141.347 248.691C138.392 245.516 136.061 241.67 134.354 237.154C132.679 232.605 131.842 227.745 131.842 222.574C131.842 216.912 132.728 211.872 134.501 207.453C136.274 203.002 138.721 199.157 141.84 195.917C144.926 192.709 148.505 190.255 152.576 188.553C156.68 186.851 160.965 186 165.43 186C170.06 186 174.427 186.867 178.531 188.602C182.635 190.336 186.181 192.775 189.169 195.917ZM181.831 245.303C183.669 242.325 184.999 238.954 185.82 235.19C186.674 231.427 187.1 227.221 187.1 222.574C187.1 217.795 186.624 213.41 185.672 209.417C184.753 205.424 183.39 202.02 181.584 199.206C179.779 196.424 177.513 194.264 174.788 192.726C172.063 191.155 168.944 190.369 165.43 190.369C161.49 190.369 158.141 191.269 155.383 193.069C152.625 194.869 150.376 197.275 148.636 200.286C146.995 203.166 145.763 206.537 144.942 210.399C144.154 214.261 143.76 218.319 143.76 222.574C143.76 227.286 144.187 231.541 145.041 235.338C145.895 239.134 147.241 242.505 149.079 245.451C150.852 248.331 153.085 250.589 155.777 252.225C158.47 253.829 161.687 254.631 165.43 254.631C168.944 254.631 172.112 253.813 174.936 252.176C177.759 250.54 180.058 248.249 181.831 245.303Z" fill="white"/>
<path d="M274.716 222.917C274.716 228.841 273.6 233.979 271.367 238.332C269.134 242.685 266.229 246.252 262.65 249.034C259.038 251.816 254.983 253.894 250.485 255.269C245.987 256.644 241.341 257.331 236.547 257.331H207.588V253.845C208.541 253.845 209.772 253.764 211.282 253.6C212.825 253.404 213.843 253.191 214.336 252.962C215.321 252.536 216.027 251.914 216.453 251.096C216.913 250.245 217.143 249.231 217.143 248.052V197.782C217.143 196.669 216.946 195.671 216.552 194.787C216.191 193.904 215.452 193.2 214.336 192.677C213.318 192.186 212.218 191.826 211.036 191.596C209.854 191.367 208.836 191.22 207.982 191.155V187.669H238.517C242.72 187.669 246.857 188.324 250.928 189.633C255 190.909 258.546 192.644 261.566 194.837C265.67 197.749 268.888 201.562 271.219 206.275C273.55 210.988 274.716 216.535 274.716 222.917ZM262.65 222.868C262.65 218.188 262.026 213.966 260.778 210.202C259.531 206.406 257.708 203.1 255.312 200.286C253.046 197.602 250.255 195.491 246.939 193.953C243.656 192.415 239.995 191.646 235.956 191.646C234.61 191.646 233.083 191.678 231.376 191.744C229.702 191.777 228.454 191.809 227.633 191.842V245.401C227.633 248.38 228.503 250.442 230.243 251.587C231.983 252.733 234.659 253.305 238.271 253.305C242.441 253.305 246.085 252.569 249.205 251.096C252.324 249.623 254.852 247.578 256.789 244.96C258.825 242.21 260.302 239.036 261.222 235.436C262.174 231.803 262.65 227.614 262.65 222.868Z" fill="white"/>
<path d="M354.008 191.155C353.089 191.187 351.743 191.384 349.97 191.744C348.197 192.104 346.752 192.644 345.636 193.364C344.52 194.117 343.748 195.671 343.321 198.028C342.894 200.384 342.681 203.264 342.681 206.668V236.958C342.681 240.82 341.876 244.174 340.268 247.022C338.659 249.869 336.541 252.209 333.914 254.042C331.321 255.809 328.579 257.069 325.69 257.822C322.833 258.607 320.092 259 317.465 259C313.262 259 309.519 258.444 306.236 257.331C302.953 256.251 300.195 254.778 297.962 252.913C295.762 251.047 294.104 248.92 292.988 246.531C291.871 244.109 291.313 241.589 291.313 238.97V197.782C291.313 196.637 291.116 195.688 290.722 194.935C290.361 194.149 289.606 193.429 288.457 192.775C287.636 192.317 286.585 191.957 285.305 191.695C284.024 191.4 282.974 191.22 282.153 191.155V187.669H311.259V191.155C310.34 191.187 309.175 191.335 307.763 191.596C306.384 191.858 305.366 192.104 304.709 192.333C303.593 192.726 302.838 193.38 302.444 194.297C302.083 195.213 301.902 196.211 301.902 197.291V235.779C301.902 237.645 302.099 239.609 302.493 241.67C302.92 243.7 303.741 245.598 304.955 247.365C306.236 249.165 307.976 250.638 310.176 251.783C312.376 252.929 315.396 253.502 319.238 253.502C322.85 253.502 325.87 252.929 328.3 251.783C330.762 250.638 332.7 249.132 334.111 247.267C335.458 245.5 336.41 243.651 336.968 241.72C337.526 239.789 337.805 237.841 337.805 235.878V207.306C337.805 203.673 337.542 200.711 337.017 198.42C336.492 196.097 335.72 194.575 334.702 193.855C333.553 193.037 331.977 192.398 329.974 191.94C328.004 191.482 326.494 191.22 325.443 191.155V187.669H354.008V191.155Z" fill="white"/>
<path d="M390.453 258.951C386.283 258.951 382.278 258.133 378.436 256.496C374.628 254.86 371.246 252.503 368.291 249.427C365.369 246.351 363.037 242.603 361.297 238.185C359.557 233.734 358.687 228.727 358.687 223.163C358.687 217.599 359.541 212.559 361.248 208.042C362.955 203.493 365.319 199.582 368.34 196.309C371.328 193.069 374.857 190.566 378.929 188.798C383 187.031 387.351 186.147 391.98 186.147C395.428 186.147 398.547 186.573 401.338 187.424C404.128 188.275 406.788 189.469 409.316 191.007L411.335 187.669H415.275L415.718 212.51H411.68C411.155 210.088 410.367 207.47 409.316 204.655C408.265 201.808 407.034 199.402 405.622 197.438C404.046 195.213 402.175 193.478 400.008 192.235C397.841 190.958 395.362 190.32 392.571 190.32C389.386 190.32 386.415 191.024 383.657 192.431C380.932 193.838 378.568 195.917 376.565 198.666C374.66 201.317 373.167 204.688 372.083 208.779C371 212.87 370.458 217.435 370.458 222.475C370.458 226.926 371.016 231.017 372.132 234.748C373.281 238.447 374.907 241.703 377.008 244.518C379.109 247.3 381.588 249.476 384.445 251.047C387.334 252.618 390.552 253.404 394.098 253.404C396.757 253.404 399.203 252.994 401.436 252.176C403.669 251.325 405.606 250.213 407.247 248.838C408.889 247.398 410.334 245.761 411.581 243.929C412.829 242.096 413.847 240.1 414.635 237.939L418.329 239.707C415.505 246.612 411.762 251.554 407.1 254.533C402.437 257.478 396.889 258.951 390.453 258.951Z" fill="white"/>
<path d="M481.27 206.57H477.872C477.576 205.391 477.035 204 476.247 202.397C475.491 200.76 474.638 199.222 473.686 197.782C472.701 196.277 471.617 194.967 470.435 193.855C469.286 192.709 468.17 192.055 467.086 191.891C466.068 191.76 464.788 191.662 463.245 191.596C461.701 191.531 460.273 191.498 458.96 191.498H456.103V247.218C456.103 248.298 456.333 249.296 456.793 250.213C457.253 251.096 458.057 251.783 459.206 252.274C459.797 252.503 461.028 252.814 462.9 253.207C464.804 253.6 466.282 253.813 467.332 253.845V257.331H434.335V253.845C435.254 253.78 436.65 253.649 438.521 253.453C440.426 253.256 441.739 253.011 442.461 252.716C443.545 252.291 444.333 251.685 444.825 250.9C445.351 250.082 445.613 249.002 445.613 247.66V191.498H442.757C441.739 191.498 440.475 191.531 438.964 191.596C437.454 191.629 436.009 191.727 434.63 191.891C433.547 192.022 432.414 192.677 431.232 193.855C430.083 195 429.016 196.309 428.031 197.782C427.046 199.255 426.176 200.826 425.421 202.495C424.666 204.131 424.14 205.49 423.845 206.57H420.397V187.669H481.27V206.57Z" fill="white"/>
<path d="M517.469 257.331H485.998V253.845C486.885 253.78 488.165 253.682 489.84 253.551C491.514 253.42 492.696 253.223 493.386 252.962C494.469 252.536 495.257 251.963 495.75 251.243C496.242 250.491 496.488 249.46 496.488 248.151V197.684C496.488 196.538 496.308 195.589 495.947 194.837C495.585 194.051 494.732 193.397 493.386 192.873C492.401 192.48 491.153 192.12 489.643 191.793C488.165 191.433 486.95 191.22 485.998 191.155V187.669H517.469V191.155C516.451 191.187 515.236 191.318 513.824 191.547C512.412 191.744 511.181 192.006 510.131 192.333C508.883 192.726 508.046 193.364 507.619 194.247C507.192 195.131 506.979 196.113 506.979 197.193V247.611C506.979 248.691 507.208 249.656 507.668 250.507C508.161 251.325 508.981 251.98 510.131 252.471C510.82 252.733 511.936 253.027 513.48 253.354C515.056 253.649 516.385 253.813 517.469 253.845V257.331Z" fill="white"/>
<path d="M582.676 195.917C585.762 199.124 588.175 203.002 589.915 207.551C591.656 212.068 592.526 217.075 592.526 222.574C592.526 228.105 591.639 233.128 589.866 237.645C588.093 242.161 585.631 246.007 582.479 249.182C579.425 252.323 575.879 254.745 571.841 256.447C567.802 258.149 563.501 259 558.937 259C554.078 259 549.58 258.1 545.443 256.3C541.339 254.467 537.809 251.931 534.854 248.691C531.899 245.516 529.568 241.67 527.861 237.154C526.186 232.605 525.349 227.745 525.349 222.574C525.349 216.912 526.235 211.872 528.008 207.453C529.781 203.002 532.227 199.157 535.346 195.917C538.433 192.709 542.012 190.255 546.083 188.553C550.187 186.851 554.472 186 558.937 186C563.567 186 567.934 186.867 572.038 188.602C576.142 190.336 579.688 192.775 582.676 195.917ZM575.337 245.303C577.176 242.325 578.506 238.954 579.327 235.19C580.18 231.427 580.607 227.221 580.607 222.574C580.607 217.795 580.131 213.41 579.179 209.417C578.26 205.424 576.897 202.02 575.091 199.206C573.285 196.424 571.02 194.264 568.295 192.726C565.57 191.155 562.45 190.369 558.937 190.369C554.997 190.369 551.648 191.269 548.89 193.069C546.132 194.869 543.883 197.275 542.143 200.286C540.501 203.166 539.27 206.537 538.449 210.399C537.661 214.261 537.267 218.319 537.267 222.574C537.267 227.286 537.694 231.541 538.548 235.338C539.401 239.134 540.748 242.505 542.586 245.451C544.359 248.331 546.592 250.589 549.284 252.225C551.977 253.829 555.194 254.631 558.937 254.631C562.45 254.631 565.619 253.813 568.442 252.176C571.266 250.54 573.564 248.249 575.337 245.303Z" fill="white"/>
<path d="M673 191.155C672.081 191.187 670.669 191.449 668.765 191.94C666.86 192.431 665.498 192.938 664.677 193.462C663.495 194.28 662.69 195.851 662.264 198.175C661.87 200.499 661.673 203.444 661.673 207.011V258.018H657.388L615.033 201.022V236.958C615.033 240.983 615.279 244.076 615.772 246.236C616.297 248.396 617.085 249.934 618.136 250.851C618.891 251.571 620.45 252.242 622.814 252.863C625.178 253.485 626.738 253.813 627.493 253.845V257.331H598.83V253.845C599.716 253.78 601.21 253.469 603.311 252.913C605.413 252.323 606.726 251.8 607.251 251.342C608.401 250.425 609.189 249.034 609.615 247.169C610.042 245.271 610.256 242.047 610.256 237.498V203.182C610.256 201.677 609.993 200.171 609.468 198.666C608.942 197.16 608.236 195.998 607.35 195.18C606.168 194.1 604.559 193.184 602.523 192.431C600.521 191.646 598.895 191.22 597.648 191.155V187.669H617.594L656.895 240.787V207.65C656.895 203.591 656.633 200.482 656.107 198.322C655.582 196.129 654.827 194.673 653.842 193.953C652.922 193.331 651.412 192.726 649.311 192.137C647.242 191.547 645.666 191.22 644.583 191.155V187.669H673V191.155Z" fill="white"/>
</svg>
